<svg width="40" height="2485" viewBox="0 0 40 2485" fill="none" xmlns="http://www.w3.org/2000/svg">
<g clip-path="url(#clip0_2817_232)">
<mask id="mask0_2817_232" style="mask-type:alpha" maskUnits="userSpaceOnUse" x="0" y="-7" width="40" height="2500">
<rect y="-7" width="40" height="2500" fill="#D9D9D9"/>
</mask>
<g mask="url(#mask0_2817_232)">
</g>
<mask id="mask1_2817_232" style="mask-type:alpha" maskUnits="userSpaceOnUse" x="0" y="-7" width="40" height="2500">
<rect y="-7" width="40" height="2500" fill="#D9D9D9"/>
</mask>
<g mask="url(#mask1_2817_232)">
<rect x="-20" y="10.2402" width="128" height="1" transform="rotate(-40 -20 10.2402)" fill="#C6C6C6"/>
<rect x="-20" y="23.2812" width="128" height="1" transform="rotate(-40 -20 23.2812)" fill="#C6C6C6"/>
<rect x="-20" y="36.3242" width="128" height="1" transform="rotate(-40 -20 36.3242)" fill="#C6C6C6"/>
<rect x="-20" y="49.3672" width="128" height="1" transform="rotate(-40 -20 49.3672)" fill="#C6C6C6"/>
<rect x="-20" y="62.4102" width="128" height="1" transform="rotate(-40 -20 62.4102)" fill="#C6C6C6"/>
<rect x="-20" y="75.4531" width="128" height="1" transform="rotate(-40 -20 75.4531)" fill="#C6C6C6"/>
<rect x="-20" y="88.4961" width="128" height="1" transform="rotate(-40 -20 88.4961)" fill="#C6C6C6"/>
<rect x="-20" y="101.539" width="128" height="1" transform="rotate(-40 -20 101.539)" fill="#C6C6C6"/>
<rect x="-20" y="114.582" width="128" height="1" transform="rotate(-40 -20 114.582)" fill="#C6C6C6"/>
<rect x="-20" y="127.625" width="128" height="1" transform="rotate(-40 -20 127.625)" fill="#C6C6C6"/>
<rect x="-20" y="140.668" width="128" height="1" transform="rotate(-40 -20 140.668)" fill="#C6C6C6"/>
<rect x="-20" y="153.711" width="128" height="1" transform="rotate(-40 -20 153.711)" fill="#C6C6C6"/>
<rect x="-20" y="166.754" width="128" height="1" transform="rotate(-40 -20 166.754)" fill="#C6C6C6"/>
<rect x="-20" y="179.797" width="128" height="1" transform="rotate(-40 -20 179.797)" fill="#C6C6C6"/>
<rect x="-20" y="192.84" width="128" height="1" transform="rotate(-40 -20 192.84)" fill="#C6C6C6"/>
<rect x="-20" y="205.883" width="128" height="1" transform="rotate(-40 -20 205.883)" fill="#C6C6C6"/>
<rect x="-20" y="218.926" width="128" height="1" transform="rotate(-40 -20 218.926)" fill="#C6C6C6"/>
<rect x="-20" y="231.969" width="128" height="1" transform="rotate(-40 -20 231.969)" fill="#C6C6C6"/>
<rect x="-20" y="245.01" width="128" height="1" transform="rotate(-40 -20 245.01)" fill="#C6C6C6"/>
<rect x="-20" y="258.053" width="128" height="1" transform="rotate(-40 -20 258.053)" fill="#C6C6C6"/>
<rect x="-20" y="271.096" width="128" height="1" transform="rotate(-40 -20 271.096)" fill="#C6C6C6"/>
<rect x="-20" y="284.139" width="128" height="1" transform="rotate(-40 -20 284.139)" fill="#C6C6C6"/>
<rect x="-20" y="297.182" width="128" height="1" transform="rotate(-40 -20 297.182)" fill="#C6C6C6"/>
<rect x="-20" y="310.225" width="128" height="1" transform="rotate(-40 -20 310.225)" fill="#C6C6C6"/>
<rect x="-20" y="323.268" width="128" height="1" transform="rotate(-40 -20 323.268)" fill="#C6C6C6"/>
<rect x="-20" y="336.311" width="128" height="1" transform="rotate(-40 -20 336.311)" fill="#C6C6C6"/>
<rect x="-20" y="349.354" width="128" height="1" transform="rotate(-40 -20 349.354)" fill="#C6C6C6"/>
<rect x="-20" y="362.396" width="128" height="1" transform="rotate(-40 -20 362.396)" fill="#C6C6C6"/>
<rect x="-20" y="375.439" width="128" height="1" transform="rotate(-40 -20 375.439)" fill="#C6C6C6"/>
<rect x="-20" y="388.482" width="128" height="1" transform="rotate(-40 -20 388.482)" fill="#C6C6C6"/>
<rect x="-20" y="401.525" width="128" height="1" transform="rotate(-40 -20 401.525)" fill="#C6C6C6"/>
<rect x="-20" y="414.568" width="128" height="1" transform="rotate(-40 -20 414.568)" fill="#C6C6C6"/>
<rect x="-20" y="427.611" width="128" height="1" transform="rotate(-40 -20 427.611)" fill="#C6C6C6"/>
<rect x="-20" y="440.654" width="128" height="1" transform="rotate(-40 -20 440.654)" fill="#C6C6C6"/>
<rect x="-20" y="453.695" width="128" height="1" transform="rotate(-40 -20 453.695)" fill="#C6C6C6"/>
<rect x="-20" y="466.738" width="128" height="1" transform="rotate(-40 -20 466.738)" fill="#C6C6C6"/>
<rect x="-20" y="479.781" width="128" height="1" transform="rotate(-40 -20 479.781)" fill="#C6C6C6"/>
<rect x="-20" y="492.824" width="128" height="1" transform="rotate(-40 -20 492.824)" fill="#C6C6C6"/>
<rect x="-20" y="505.867" width="128" height="1" transform="rotate(-40 -20 505.867)" fill="#C6C6C6"/>
<rect x="-20" y="518.91" width="128" height="1" transform="rotate(-40 -20 518.91)" fill="#C6C6C6"/>
<rect x="-20" y="531.953" width="128" height="1" transform="rotate(-40 -20 531.953)" fill="#C6C6C6"/>
<rect x="-20" y="544.996" width="128" height="1" transform="rotate(-40 -20 544.996)" fill="#C6C6C6"/>
<rect x="-20" y="558.039" width="128" height="1" transform="rotate(-40 -20 558.039)" fill="#C6C6C6"/>
<rect x="-20" y="571.082" width="128" height="1" transform="rotate(-40 -20 571.082)" fill="#C6C6C6"/>
<rect x="-20" y="584.125" width="128" height="1" transform="rotate(-40 -20 584.125)" fill="#C6C6C6"/>
<rect x="-20" y="597.168" width="128" height="1" transform="rotate(-40 -20 597.168)" fill="#C6C6C6"/>
<rect x="-20" y="610.211" width="128" height="1" transform="rotate(-40 -20 610.211)" fill="#C6C6C6"/>
<rect x="-20" y="623.254" width="128" height="1" transform="rotate(-40 -20 623.254)" fill="#C6C6C6"/>
<rect x="-20" y="636.297" width="128" height="1" transform="rotate(-40 -20 636.297)" fill="#C6C6C6"/>
<rect x="-20" y="649.34" width="128" height="1" transform="rotate(-40 -20 649.34)" fill="#C6C6C6"/>
<rect x="-20" y="662.381" width="128" height="1" transform="rotate(-40 -20 662.381)" fill="#C6C6C6"/>
<rect x="-20" y="675.424" width="128" height="1" transform="rotate(-40 -20 675.424)" fill="#C6C6C6"/>
<rect x="-20" y="688.467" width="128" height="1" transform="rotate(-40 -20 688.467)" fill="#C6C6C6"/>
<rect x="-20" y="701.51" width="128" height="1" transform="rotate(-40 -20 701.51)" fill="#C6C6C6"/>
<rect x="-20" y="714.553" width="128" height="1" transform="rotate(-40 -20 714.553)" fill="#C6C6C6"/>
<rect x="-20" y="727.596" width="128" height="1" transform="rotate(-40 -20 727.596)" fill="#C6C6C6"/>
<rect x="-20" y="740.639" width="128" height="1" transform="rotate(-40 -20 740.639)" fill="#C6C6C6"/>
<rect x="-20" y="753.682" width="128" height="1" transform="rotate(-40 -20 753.682)" fill="#C6C6C6"/>
<rect x="-20" y="766.725" width="128" height="1" transform="rotate(-40 -20 766.725)" fill="#C6C6C6"/>
<rect x="-20" y="779.768" width="128" height="1" transform="rotate(-40 -20 779.768)" fill="#C6C6C6"/>
<rect x="-20" y="792.811" width="128" height="1" transform="rotate(-40 -20 792.811)" fill="#C6C6C6"/>
<rect x="-20" y="805.854" width="128" height="1" transform="rotate(-40 -20 805.854)" fill="#C6C6C6"/>
<rect x="-20" y="818.896" width="128" height="1" transform="rotate(-40 -20 818.896)" fill="#C6C6C6"/>
<rect x="-20" y="831.939" width="128" height="1" transform="rotate(-40 -20 831.939)" fill="#C6C6C6"/>
<rect x="-20" y="844.982" width="128" height="1" transform="rotate(-40 -20 844.982)" fill="#C6C6C6"/>
<rect x="-20" y="858.025" width="128" height="1" transform="rotate(-40 -20 858.025)" fill="#C6C6C6"/>
<rect x="-20" y="871.066" width="128" height="1" transform="rotate(-40 -20 871.066)" fill="#C6C6C6"/>
<rect x="-20" y="884.109" width="128" height="1" transform="rotate(-40 -20 884.109)" fill="#C6C6C6"/>
<rect x="-20" y="897.152" width="128" height="1" transform="rotate(-40 -20 897.152)" fill="#C6C6C6"/>
<rect x="-20" y="910.195" width="128" height="1" transform="rotate(-40 -20 910.195)" fill="#C6C6C6"/>
<rect x="-20" y="923.238" width="128" height="1" transform="rotate(-40 -20 923.238)" fill="#C6C6C6"/>
<rect x="-20" y="936.281" width="128" height="1" transform="rotate(-40 -20 936.281)" fill="#C6C6C6"/>
<rect x="-20" y="949.324" width="128" height="1" transform="rotate(-40 -20 949.324)" fill="#C6C6C6"/>
<rect x="-20" y="962.367" width="128" height="1" transform="rotate(-40 -20 962.367)" fill="#C6C6C6"/>
<rect x="-20" y="975.41" width="128" height="1" transform="rotate(-40 -20 975.41)" fill="#C6C6C6"/>
<rect x="-20" y="988.453" width="128" height="1" transform="rotate(-40 -20 988.453)" fill="#C6C6C6"/>
<rect x="-20" y="1001.5" width="128" height="1" transform="rotate(-40 -20 1001.5)" fill="#C6C6C6"/>
<rect x="-20" y="1014.54" width="128" height="1" transform="rotate(-40 -20 1014.54)" fill="#C6C6C6"/>
<rect x="-20" y="1027.58" width="128" height="1" transform="rotate(-40 -20 1027.58)" fill="#C6C6C6"/>
<rect x="-20" y="1040.62" width="128" height="1" transform="rotate(-40 -20 1040.62)" fill="#C6C6C6"/>
<rect x="-20" y="1053.67" width="128" height="1" transform="rotate(-40 -20 1053.67)" fill="#C6C6C6"/>
<rect x="-20" y="1066.71" width="128" height="1" transform="rotate(-40 -20 1066.71)" fill="#C6C6C6"/>
<rect x="-20" y="1079.75" width="128" height="1" transform="rotate(-40 -20 1079.75)" fill="#C6C6C6"/>
<rect x="-20" y="1092.79" width="128" height="1" transform="rotate(-40 -20 1092.79)" fill="#C6C6C6"/>
<rect x="-20" y="1105.84" width="128" height="1" transform="rotate(-40 -20 1105.84)" fill="#C6C6C6"/>
<rect x="-20" y="1118.88" width="128" height="1" transform="rotate(-40 -20 1118.88)" fill="#C6C6C6"/>
<rect x="-20" y="1131.92" width="128" height="1" transform="rotate(-40 -20 1131.92)" fill="#C6C6C6"/>
<rect x="-20" y="1144.97" width="128" height="1" transform="rotate(-40 -20 1144.97)" fill="#C6C6C6"/>
<rect x="-20" y="1158.01" width="128" height="1" transform="rotate(-40 -20 1158.01)" fill="#C6C6C6"/>
<rect x="-20" y="1171.05" width="128" height="1" transform="rotate(-40 -20 1171.05)" fill="#C6C6C6"/>
<rect x="-20" y="1184.1" width="128" height="1" transform="rotate(-40 -20 1184.1)" fill="#C6C6C6"/>
<rect x="-20" y="1197.14" width="128" height="1" transform="rotate(-40 -20 1197.14)" fill="#C6C6C6"/>
<rect x="-20" y="1210.18" width="128" height="1" transform="rotate(-40 -20 1210.18)" fill="#C6C6C6"/>
<rect x="-20" y="1223.22" width="128" height="1" transform="rotate(-40 -20 1223.22)" fill="#C6C6C6"/>
<rect x="-20" y="1236.27" width="128" height="1" transform="rotate(-40 -20 1236.27)" fill="#C6C6C6"/>
<rect x="-20" y="1249.31" width="128" height="1" transform="rotate(-40 -20 1249.31)" fill="#C6C6C6"/>
<rect x="-20" y="1262.35" width="128" height="1" transform="rotate(-40 -20 1262.35)" fill="#C6C6C6"/>
<rect x="-20" y="1275.4" width="128" height="1" transform="rotate(-40 -20 1275.4)" fill="#C6C6C6"/>
<rect x="-20" y="1288.44" width="128" height="1" transform="rotate(-40 -20 1288.44)" fill="#C6C6C6"/>
<rect x="-20" y="1301.48" width="128" height="1" transform="rotate(-40 -20 1301.48)" fill="#C6C6C6"/>
<rect x="-20" y="1314.52" width="128" height="1" transform="rotate(-40 -20 1314.52)" fill="#C6C6C6"/>
<rect x="-20" y="1327.57" width="128" height="1" transform="rotate(-40 -20 1327.57)" fill="#C6C6C6"/>
<rect x="-20" y="1340.61" width="128" height="1" transform="rotate(-40 -20 1340.61)" fill="#C6C6C6"/>
<rect x="-20" y="1353.65" width="128" height="1" transform="rotate(-40 -20 1353.65)" fill="#C6C6C6"/>
<rect x="-20" y="1366.7" width="128" height="1" transform="rotate(-40 -20 1366.7)" fill="#C6C6C6"/>
<rect x="-20" y="1379.74" width="128" height="1" transform="rotate(-40 -20 1379.74)" fill="#C6C6C6"/>
<rect x="-20" y="1392.78" width="128" height="1" transform="rotate(-40 -20 1392.78)" fill="#C6C6C6"/>
<rect x="-20" y="1405.82" width="128" height="1" transform="rotate(-40 -20 1405.82)" fill="#C6C6C6"/>
<rect x="-20" y="1418.87" width="128" height="1" transform="rotate(-40 -20 1418.87)" fill="#C6C6C6"/>
<rect x="-20" y="1431.91" width="128" height="1" transform="rotate(-40 -20 1431.91)" fill="#C6C6C6"/>
<rect x="-20" y="1444.95" width="128" height="1" transform="rotate(-40 -20 1444.95)" fill="#C6C6C6"/>
<rect x="-20" y="1458" width="128" height="1" transform="rotate(-40 -20 1458)" fill="#C6C6C6"/>
<rect x="-20" y="1471.04" width="128" height="1" transform="rotate(-40 -20 1471.04)" fill="#C6C6C6"/>
<rect x="-20" y="1484.08" width="128" height="1" transform="rotate(-40 -20 1484.08)" fill="#C6C6C6"/>
<rect x="-20" y="1497.12" width="128" height="1" transform="rotate(-40 -20 1497.12)" fill="#C6C6C6"/>
<rect x="-20" y="1510.17" width="128" height="1" transform="rotate(-40 -20 1510.17)" fill="#C6C6C6"/>
<rect x="-20" y="1523.21" width="128" height="1" transform="rotate(-40 -20 1523.21)" fill="#C6C6C6"/>
<rect x="-20" y="1536.25" width="128" height="1" transform="rotate(-40 -20 1536.25)" fill="#C6C6C6"/>
<rect x="-20" y="1549.29" width="128" height="1" transform="rotate(-40 -20 1549.29)" fill="#C6C6C6"/>
<rect x="-20" y="1562.34" width="128" height="1" transform="rotate(-40 -20 1562.34)" fill="#C6C6C6"/>
<rect x="-20" y="1575.38" width="128" height="1" transform="rotate(-40 -20 1575.38)" fill="#C6C6C6"/>
<rect x="-20" y="1588.42" width="128" height="1" transform="rotate(-40 -20 1588.42)" fill="#C6C6C6"/>
<rect x="-20" y="1601.47" width="128" height="1" transform="rotate(-40 -20 1601.47)" fill="#C6C6C6"/>
<rect x="-20" y="1614.51" width="128" height="1" transform="rotate(-40 -20 1614.51)" fill="#C6C6C6"/>
<rect x="-20" y="1627.55" width="128" height="1" transform="rotate(-40 -20 1627.55)" fill="#C6C6C6"/>
<rect x="-20" y="1640.6" width="128" height="1" transform="rotate(-40 -20 1640.6)" fill="#C6C6C6"/>
<rect x="-20" y="1653.64" width="128" height="1" transform="rotate(-40 -20 1653.64)" fill="#C6C6C6"/>
<rect x="-20" y="1666.68" width="128" height="1" transform="rotate(-40 -20 1666.68)" fill="#C6C6C6"/>
<rect x="-20" y="1679.72" width="128" height="1" transform="rotate(-40 -20 1679.72)" fill="#C6C6C6"/>
<rect x="-20" y="1692.77" width="128" height="1" transform="rotate(-40 -20 1692.77)" fill="#C6C6C6"/>
<rect x="-20" y="1705.81" width="128" height="1" transform="rotate(-40 -20 1705.81)" fill="#C6C6C6"/>
<rect x="-20" y="1718.85" width="128" height="1" transform="rotate(-40 -20 1718.85)" fill="#C6C6C6"/>
<rect x="-20" y="1731.89" width="128" height="1" transform="rotate(-40 -20 1731.89)" fill="#C6C6C6"/>
<rect x="-20" y="1744.94" width="128" height="1" transform="rotate(-40 -20 1744.94)" fill="#C6C6C6"/>
<rect x="-20" y="1757.98" width="128" height="1" transform="rotate(-40 -20 1757.98)" fill="#C6C6C6"/>
<rect x="-20" y="1771.02" width="128" height="1" transform="rotate(-40 -20 1771.02)" fill="#C6C6C6"/>
<rect x="-20" y="1784.07" width="128" height="1" transform="rotate(-40 -20 1784.07)" fill="#C6C6C6"/>
<rect x="-20" y="1797.11" width="128" height="1" transform="rotate(-40 -20 1797.11)" fill="#C6C6C6"/>
<rect x="-20" y="1810.15" width="128" height="1" transform="rotate(-40 -20 1810.15)" fill="#C6C6C6"/>
<rect x="-20" y="1823.2" width="128" height="1" transform="rotate(-40 -20 1823.2)" fill="#C6C6C6"/>
<rect x="-20" y="1836.24" width="128" height="1" transform="rotate(-40 -20 1836.24)" fill="#C6C6C6"/>
<rect x="-20" y="1849.28" width="128" height="1" transform="rotate(-40 -20 1849.28)" fill="#C6C6C6"/>
<rect x="-20" y="1862.32" width="128" height="1" transform="rotate(-40 -20 1862.32)" fill="#C6C6C6"/>
<rect x="-20" y="1875.37" width="128" height="1" transform="rotate(-40 -20 1875.37)" fill="#C6C6C6"/>
<rect x="-20" y="1888.41" width="128" height="1" transform="rotate(-40 -20 1888.41)" fill="#C6C6C6"/>
<rect x="-20" y="1901.45" width="128" height="1" transform="rotate(-40 -20 1901.45)" fill="#C6C6C6"/>
<rect x="-20" y="1914.5" width="128" height="1" transform="rotate(-40 -20 1914.5)" fill="#C6C6C6"/>
<rect x="-20" y="1927.54" width="128" height="1" transform="rotate(-40 -20 1927.54)" fill="#C6C6C6"/>
<rect x="-20" y="1940.58" width="128" height="1" transform="rotate(-40 -20 1940.58)" fill="#C6C6C6"/>
<rect x="-20" y="1953.62" width="128" height="1" transform="rotate(-40 -20 1953.62)" fill="#C6C6C6"/>
<rect x="-20" y="1966.67" width="128" height="1" transform="rotate(-40 -20 1966.67)" fill="#C6C6C6"/>
<rect x="-20" y="1979.71" width="128" height="1" transform="rotate(-40 -20 1979.71)" fill="#C6C6C6"/>
<rect x="-20" y="1992.75" width="128" height="1" transform="rotate(-40 -20 1992.75)" fill="#C6C6C6"/>
<rect x="-20" y="2005.79" width="128" height="1" transform="rotate(-40 -20 2005.79)" fill="#C6C6C6"/>
<rect x="-20" y="2018.84" width="128" height="1" transform="rotate(-40 -20 2018.84)" fill="#C6C6C6"/>
<rect x="-20" y="2031.88" width="128" height="1" transform="rotate(-40 -20 2031.88)" fill="#C6C6C6"/>
<rect x="-20" y="2044.92" width="128" height="1" transform="rotate(-40 -20 2044.92)" fill="#C6C6C6"/>
<rect x="-20" y="2057.97" width="128" height="1" transform="rotate(-40 -20 2057.97)" fill="#C6C6C6"/>
<rect x="-20" y="2071.01" width="128" height="1" transform="rotate(-40 -20 2071.01)" fill="#C6C6C6"/>
<rect x="-20" y="2084.05" width="128" height="1" transform="rotate(-40 -20 2084.05)" fill="#C6C6C6"/>
<rect x="-20" y="2097.1" width="128" height="1" transform="rotate(-40 -20 2097.1)" fill="#C6C6C6"/>
<rect x="-20" y="2110.14" width="128" height="1" transform="rotate(-40 -20 2110.14)" fill="#C6C6C6"/>
<rect x="-20" y="2123.18" width="128" height="1" transform="rotate(-40 -20 2123.18)" fill="#C6C6C6"/>
<rect x="-20" y="2136.22" width="128" height="1" transform="rotate(-40 -20 2136.22)" fill="#C6C6C6"/>
<rect x="-20" y="2149.27" width="128" height="1" transform="rotate(-40 -20 2149.27)" fill="#C6C6C6"/>
<rect x="-20" y="2162.31" width="128" height="1" transform="rotate(-40 -20 2162.31)" fill="#C6C6C6"/>
<rect x="-20" y="2175.35" width="128" height="1" transform="rotate(-40 -20 2175.35)" fill="#C6C6C6"/>
<rect x="-20" y="2188.4" width="128" height="1" transform="rotate(-40 -20 2188.4)" fill="#C6C6C6"/>
<rect x="-20" y="2201.44" width="128" height="1" transform="rotate(-40 -20 2201.44)" fill="#C6C6C6"/>
<rect x="-20" y="2214.48" width="128" height="1" transform="rotate(-40 -20 2214.48)" fill="#C6C6C6"/>
<rect x="-20" y="2227.53" width="128" height="1" transform="rotate(-40 -20 2227.53)" fill="#C6C6C6"/>
<rect x="-20" y="2240.57" width="128" height="1" transform="rotate(-40 -20 2240.57)" fill="#C6C6C6"/>
<rect x="-20" y="2253.61" width="128" height="1" transform="rotate(-40 -20 2253.61)" fill="#C6C6C6"/>
<rect x="-20" y="2266.65" width="128" height="1" transform="rotate(-40 -20 2266.65)" fill="#C6C6C6"/>
<rect x="-20" y="2279.7" width="128" height="1" transform="rotate(-40 -20 2279.7)" fill="#C6C6C6"/>
<rect x="-20" y="2292.74" width="128" height="1" transform="rotate(-40 -20 2292.74)" fill="#C6C6C6"/>
<rect x="-20" y="2305.78" width="128" height="1" transform="rotate(-40 -20 2305.78)" fill="#C6C6C6"/>
<rect x="-20" y="2318.83" width="128" height="1" transform="rotate(-40 -20 2318.83)" fill="#C6C6C6"/>
<rect x="-20" y="2331.87" width="128" height="1" transform="rotate(-40 -20 2331.87)" fill="#C6C6C6"/>
<rect x="-20" y="2344.91" width="128" height="1" transform="rotate(-40 -20 2344.91)" fill="#C6C6C6"/>
<rect x="-20" y="2357.96" width="128" height="1" transform="rotate(-40 -20 2357.96)" fill="#C6C6C6"/>
<rect x="-20" y="2371" width="128" height="1" transform="rotate(-40 -20 2371)" fill="#C6C6C6"/>
<rect x="-20" y="2384.04" width="128" height="1" transform="rotate(-40 -20 2384.04)" fill="#C6C6C6"/>
<rect x="-20" y="2397.08" width="128" height="1" transform="rotate(-40 -20 2397.08)" fill="#C6C6C6"/>
<rect x="-20" y="2410.13" width="128" height="1" transform="rotate(-40 -20 2410.13)" fill="#C6C6C6"/>
<rect x="-20" y="2423.17" width="128" height="1" transform="rotate(-40 -20 2423.17)" fill="#C6C6C6"/>
<rect x="-20" y="2436.21" width="128" height="1" transform="rotate(-40 -20 2436.21)" fill="#C6C6C6"/>
<rect x="-20" y="2449.26" width="128" height="1" transform="rotate(-40 -20 2449.26)" fill="#C6C6C6"/>
<rect x="-20" y="2462.3" width="128" height="1" transform="rotate(-40 -20 2462.3)" fill="#C6C6C6"/>
<rect x="-20" y="2475.34" width="128" height="1" transform="rotate(-40 -20 2475.34)" fill="#C6C6C6"/>
<rect x="-20" y="2488.38" width="128" height="1" transform="rotate(-40 -20 2488.38)" fill="#C6C6C6"/>
<rect x="-20" y="2501.43" width="128" height="1" transform="rotate(-40 -20 2501.43)" fill="#C6C6C6"/>
<rect x="-20" y="2514.47" width="128" height="1" transform="rotate(-40 -20 2514.47)" fill="#C6C6C6"/>
<rect x="-20" y="2527.51" width="128" height="1" transform="rotate(-40 -20 2527.51)" fill="#C6C6C6"/>
<rect x="-20" y="2540.56" width="128" height="1" transform="rotate(-40 -20 2540.56)" fill="#C6C6C6"/>
<rect x="-20" y="2553.6" width="128" height="1" transform="rotate(-40 -20 2553.6)" fill="#C6C6C6"/>
<rect x="-20" y="2566.64" width="128" height="1" transform="rotate(-40 -20 2566.64)" fill="#C6C6C6"/>
</g>
</g>
<defs>
<clipPath id="clip0_2817_232">
<rect width="40" height="2485" fill="white"/>
</clipPath>
</defs>
</svg>
