<svg width="34" height="30" viewBox="0 0 34 30" fill="none" xmlns="http://www.w3.org/2000/svg">
<path fill-rule="evenodd" clip-rule="evenodd" d="M8.80439 8.64735C9.72877 8.61751 10.4873 9.30121 11.1641 9.93146L16.1925 14.6134C16.6294 15.0216 17.3145 15.0216 17.7531 14.615L22.4815 10.216C23.359 9.39967 24.4074 8.51251 25.5807 8.75724C27.3316 9.12246 27.9225 11.3681 26.945 12.1473L18.8258 19.744C17.8092 20.6955 16.1432 20.6955 15.1249 19.744L7.00742 12.1473C6.0176 11.2348 6.90552 8.70865 8.80439 8.64735ZM2.975 0C1.122 0.118306 0 1.15445 0 2.99736V14.0381C0 23.0078 9.10012 30.0547 16.9728 29.9997C25.823 29.9364 34 22.6112 34 14.0381V2.99736C34 1.14779 32.8083 0.10331 30.9417 0H2.975Z" fill="url(#paint0_linear_2794_762)"/>
<defs>
<linearGradient id="paint0_linear_2794_762" x1="0" y1="15" x2="34" y2="15" gradientUnits="userSpaceOnUse">
<stop stop-color="#6A5FEE"/>
<stop offset="0.535" stop-color="#5E6AEF"/>
<stop offset="1" stop-color="#2EA0F6"/>
</linearGradient>
</defs>
</svg>
