<svg width="50" height="50" viewBox="0 0 50 50" fill="none" xmlns="http://www.w3.org/2000/svg">
<path fill-rule="evenodd" clip-rule="evenodd" d="M0 13.9535C0 6.24719 6.24719 0 13.9535 0H36.0465C43.7528 0 50 6.24719 50 13.9535V36.0465C50 43.7528 43.7528 50 36.0465 50H13.9535C6.24719 50 0 43.7528 0 36.0465V13.9535ZM35.4933 26.1319C29.1212 21.2119 20.897 21.2119 14.525 26.1319C13.7625 26.7205 12.6672 26.5795 12.0785 25.8172C11.4898 25.0547 11.6307 23.9593 12.3931 23.3707C20.0211 17.4812 29.9972 17.4812 37.6251 23.3707C38.3877 23.9593 38.5284 25.0547 37.9398 25.8172C37.3509 26.5795 36.2558 26.7205 35.4933 26.1319ZM9.78709 20.4665C19.0243 13.3329 30.976 13.3329 40.2133 20.4665C40.9756 21.0553 42.0709 20.9147 42.6598 20.1522C43.2486 19.3898 43.1079 18.2944 42.3453 17.7056C31.8523 9.602 18.1481 9.602 7.65493 17.7056C6.89253 18.2944 6.75179 19.3898 7.34056 20.1522C7.92935 20.9147 9.0247 21.0553 9.78709 20.4665ZM32.3972 32.0721C27.8981 28.5872 22.086 28.5872 17.5868 32.0721C16.8253 32.6621 15.7297 32.523 15.1399 31.7614C14.55 30.9998 14.6891 29.9042 15.4507 29.3144C21.2074 24.8553 28.7767 24.8553 34.5335 29.3144C35.2949 29.9042 35.4342 30.9998 34.8442 31.7614C34.2544 32.523 33.1588 32.6621 32.3972 32.0721ZM25 34.3023C23.0735 34.3023 21.5116 35.8642 21.5116 37.7907C21.5116 39.7172 23.0735 41.2791 25 41.2791H25.0174C26.944 41.2791 28.5058 39.7172 28.5058 37.7907C28.5058 35.8642 26.944 34.3023 25.0174 34.3023H25Z" fill="#4D3FEB"/>
</svg>
