<svg width="26" height="32" viewBox="0 0 26 32" fill="none" xmlns="http://www.w3.org/2000/svg">
<path d="M1.625 0H17.875L25.5239 7.5312C25.8286 7.83119 25.9999 8.23809 26 8.6624V30.4C26 30.8243 25.8288 31.2313 25.524 31.5314C25.2193 31.8314 24.806 32 24.375 32H1.625C1.19402 32 0.780698 31.8314 0.475952 31.5314C0.171205 31.2313 0 30.8243 0 30.4V1.6C0 1.17565 0.171205 0.768687 0.475952 0.468629C0.780698 0.168571 1.19402 0 1.625 0ZM6.5 16V25.6H19.5V16H6.5Z" fill="url(#paint0_linear_2794_798)"/>
<defs>
<linearGradient id="paint0_linear_2794_798" x1="0" y1="16" x2="26" y2="16" gradientUnits="userSpaceOnUse">
<stop stop-color="#6A5FEE"/>
<stop offset="0.535" stop-color="#5E6AEF"/>
<stop offset="1" stop-color="#2EA0F6"/>
</linearGradient>
</defs>
</svg>
