<svg width="36" height="36" viewBox="0 0 36 36" fill="none" xmlns="http://www.w3.org/2000/svg">
<path fill-rule="evenodd" clip-rule="evenodd" d="M10.8 27C10.8 26.0064 9.9936 25.2 9 25.2H5.4C4.4064 25.2 3.6 26.0064 3.6 27V30.6C3.6 31.5936 4.4064 32.4 5.4 32.4H9C9.9936 32.4 10.8 31.5936 10.8 30.6V27ZM14.4 25.2V32.4C14.4 34.389 12.789 36 10.8 36H3.6C1.611 36 0 34.389 0 32.4V25.2C0 23.211 1.611 21.6 3.6 21.6H10.8C12.789 21.6 14.4 23.211 14.4 25.2ZM28.8 18.018C27.8064 18.018 27 18.8226 27 19.818V25.218C27 26.2116 26.1936 27 25.2 27H19.8C18.8064 27 18 27.8064 18 28.8C18 29.7936 18.8064 30.6 19.8 30.6H27C28.989 30.6 30.6 29.0052 30.6 27.018V19.818C30.6 18.8226 29.7936 18.018 28.8 18.018ZM32.4 5.4C32.4 4.4064 31.5936 3.6 30.6 3.6H27C26.0064 3.6 25.2 4.4064 25.2 5.4V9C25.2 9.9936 26.0064 10.8 27 10.8H30.6C31.5936 10.8 32.4 9.9936 32.4 9V5.4ZM36 3.6V10.8C36 12.789 34.389 14.4 32.4 14.4H25.2C23.211 14.4 21.6 12.789 21.6 10.8V3.6C21.6 1.611 23.211 0 25.2 0H32.4C34.389 0 36 1.611 36 3.6ZM18 7.2C18 8.1936 17.1936 9 16.2 9H10.8C9.8064 9 9 9.82262 9 10.818V16.218C9 17.2116 8.1936 18.018 7.2 18.018C6.2064 18.018 5.4 17.2116 5.4 16.218V9.01802C5.4 7.02902 7.011 5.4 9 5.4H16.2C17.1936 5.4 18 6.2064 18 7.2Z" fill="url(#paint0_linear_2794_822)"/>
<defs>
<linearGradient id="paint0_linear_2794_822" x1="0" y1="18" x2="36" y2="18" gradientUnits="userSpaceOnUse">
<stop stop-color="#6A5FEE"/>
<stop offset="0.535" stop-color="#5E6AEF"/>
<stop offset="1" stop-color="#2EA0F6"/>
</linearGradient>
</defs>
</svg>
