<svg width="15" height="15" viewBox="0 0 15 15" fill="none" xmlns="http://www.w3.org/2000/svg">
<path fill-rule="evenodd" clip-rule="evenodd" d="M14.8786 6.84472L14.7067 8.6712C14.4235 11.6806 14.2819 13.1854 13.3949 14.0926C12.508 15 11.1786 15 8.51992 15H6.48007C3.82138 15 2.49203 15 1.60507 14.0926C0.718108 13.1854 0.576486 11.6806 0.293248 8.6712L0.121356 6.84472C-0.0136518 5.41027 -0.0811516 4.69304 0.164241 4.39655C0.296983 4.23617 0.477493 4.1379 0.670491 4.12095C1.02726 4.08961 1.47531 4.59967 2.3714 5.6198C2.83483 6.14737 3.06654 6.41115 3.32503 6.45203C3.46825 6.4746 3.61419 6.45135 3.74644 6.38482C3.98513 6.26467 4.14427 5.93859 4.46255 5.28639L6.14017 1.84864C6.7416 0.616215 7.04235 0 7.5 0C7.95765 0 8.2584 0.616215 8.85982 1.84864L10.5374 5.28638C10.8557 5.93859 11.0149 6.26467 11.2535 6.38482C11.3858 6.45135 11.5318 6.4746 11.6749 6.45203C11.9335 6.41115 12.1651 6.14737 12.6286 5.6198C13.5247 4.59967 13.9727 4.08961 14.3295 4.12095C14.5225 4.1379 14.703 4.23617 14.8357 4.39655C15.0811 4.69304 15.0136 5.41027 14.8786 6.84472ZM8.2143 8.02425L8.14057 7.89203C7.85557 7.38075 7.71307 7.12515 7.5 7.12515C7.28692 7.12515 7.14442 7.38075 6.85942 7.89203L6.7857 8.02425C6.70477 8.16953 6.66427 8.2422 6.60112 8.29013C6.53797 8.33805 6.45937 8.35582 6.3021 8.39145L6.15892 8.42385C5.60547 8.54903 5.32876 8.61165 5.26292 8.82337C5.19709 9.0351 5.38573 9.25568 5.76302 9.69683L5.86063 9.81097C5.96785 9.93637 6.02145 9.99908 6.0456 10.0766C6.06967 10.1542 6.06157 10.2378 6.04537 10.405L6.0306 10.5574C5.97357 11.146 5.94505 11.4403 6.11737 11.5711C6.2898 11.702 6.54885 11.5827 7.06702 11.3441L7.20105 11.2824C7.34835 11.2146 7.42192 11.1807 7.5 11.1807C7.57807 11.1807 7.65165 11.2146 7.79895 11.2824L7.93297 11.3441C8.45115 11.5827 8.7102 11.702 8.88262 11.5711C9.05497 11.4403 9.0264 11.146 8.9694 10.5574L8.95462 10.405C8.93842 10.2378 8.93032 10.1542 8.9544 10.0766C8.97855 9.99908 9.03217 9.93637 9.13935 9.81097L9.237 9.69683C9.61425 9.25568 9.80295 9.0351 9.7371 8.82337C9.67125 8.61165 9.3945 8.54903 8.84107 8.42385L8.6979 8.39145C8.54062 8.35582 8.46202 8.33805 8.39887 8.29013C8.33572 8.2422 8.29522 8.16953 8.2143 8.02425Z" fill="#1C1C20"/>
</svg>
