<svg width="44" height="41" viewBox="0 0 44 41" fill="none" xmlns="http://www.w3.org/2000/svg">
<path fill-rule="evenodd" clip-rule="evenodd" d="M14.7669 17.9323H17.363V12.706C17.363 11.9644 17.9681 11.3591 18.7093 11.3591C19.4505 11.3591 20.0557 11.9644 20.0557 12.706V17.9323H24.0124V12.706C24.0124 11.9644 24.6175 11.3591 25.3587 11.3591C26.0999 11.3591 26.7051 11.9644 26.7051 12.706V17.9323H29.2331C29.7021 17.9323 30.0853 18.3156 30.0853 18.7849V19.7736C30.0853 20.2428 29.7021 20.6261 29.2331 20.6261H14.7669C14.2979 20.6261 13.9147 20.2428 13.9147 19.7736V18.7849C13.9147 18.3156 14.2979 17.9323 14.7669 17.9323ZM18.4801 21.3891H25.6559V22.4566H18.4801V21.3891ZM12.1279 38.1071C12.862 38.5585 13.0911 39.5221 12.64 40.2564C12.1888 40.9908 11.2256 41.22 10.4915 40.7687C7.29395 38.8021 4.63346 36.0295 2.78939 32.7339C1.01335 29.5565 0 25.8955 0 22.0088C0 15.9299 2.46354 10.4277 6.44531 6.4479C10.4271 2.46453 15.9271 0 22 0C28.0765 0 33.5837 2.43946 37.569 6.39775C41.5436 10.3489 44 15.8117 44 21.8763C44 29.7463 39.6064 35.27 34.6758 37.7525C32.8532 38.6731 30.9411 39.1782 29.1328 39.2462C27.2422 39.3143 25.4518 38.8988 23.9694 37.9638C21.3734 36.3268 19.7728 33.2103 20.2633 28.4639C16.9082 27.9302 15.4365 26.1606 15.4365 22.7002V20.6369H28.7067V22.496C28.7067 25.9994 27.0632 28.1451 23.418 28.4962H23.4001C22.9668 32.0532 23.9551 34.2706 25.6273 35.3238C26.5654 35.9148 27.7435 36.1763 29.0182 36.1298C30.3789 36.0796 31.8434 35.6856 33.2686 34.9691C37.2897 32.9452 40.8704 28.3994 40.8704 21.8763C40.8704 16.6714 38.7686 11.9895 35.3669 8.60795C31.9544 5.21564 27.2279 3.12723 22 3.12723C16.7865 3.12723 12.0706 5.24071 8.65462 8.6581C5.23861 12.0755 3.12598 16.7932 3.12598 22.0088C3.12598 25.3582 3.99251 28.4997 5.51432 31.2186C7.08984 34.0378 9.37435 36.4127 12.1279 38.1071Z" fill="url(#paint0_linear_2794_774)"/>
<defs>
<linearGradient id="paint0_linear_2794_774" x1="0" y1="20.5" x2="44" y2="20.5" gradientUnits="userSpaceOnUse">
<stop stop-color="#6A5FEE"/>
<stop offset="0.535" stop-color="#5E6AEF"/>
<stop offset="1" stop-color="#2EA0F6"/>
</linearGradient>
</defs>
</svg>
