<svg width="24" height="34" viewBox="0 0 24 34" fill="none" xmlns="http://www.w3.org/2000/svg">
<path d="M6.85714 3.4V1.7C6.85714 1.24913 7.03775 0.81673 7.35925 0.497918C7.68074 0.179107 8.11677 0 8.57143 0H15.4286C15.8832 0 16.3193 0.179107 16.6408 0.497918C16.9622 0.81673 17.1429 1.24913 17.1429 1.7V3.4H22.2857C22.7404 3.4 23.1764 3.57911 23.4979 3.89792C23.8194 4.21673 24 4.64913 24 5.1V32.3C24 32.7509 23.8194 33.1833 23.4979 33.5021C23.1764 33.8209 22.7404 34 22.2857 34H1.71429C1.25963 34 0.823594 33.8209 0.502103 33.5021C0.180612 33.1833 0 32.7509 0 32.3V5.1C0 4.64913 0.180612 4.21673 0.502103 3.89792C0.823594 3.57911 1.25963 3.4 1.71429 3.4H6.85714ZM13.7143 17V8.5L5.14286 20.4H10.2857V28.9L18.8571 17H13.7143Z" fill="url(#paint0_linear_2794_810)"/>
<defs>
<linearGradient id="paint0_linear_2794_810" x1="0" y1="17" x2="24" y2="17" gradientUnits="userSpaceOnUse">
<stop stop-color="#6A5FEE"/>
<stop offset="0.535" stop-color="#5E6AEF"/>
<stop offset="1" stop-color="#2EA0F6"/>
</linearGradient>
</defs>
</svg>
